<?xml version="1.0" standalone="no"?>
<!DOCTYPE svg PUBLIC "-//W3C//DTD SVG 20010904//EN"
 "http://www.w3.org/TR/2001/REC-SVG-20010904/DTD/svg10.dtd">
<svg version="1.0" xmlns="http://www.w3.org/2000/svg"
 width="260.000000pt" height="260.000000pt" viewBox="0 0 260.000000 260.000000"
 preserveAspectRatio="xMidYMid meet">
<metadata>
Created by potrace 1.14, written by Peter Selinger 2001-2017
</metadata>
<g transform="translate(0.000000,260.000000) scale(0.100000,-0.100000)"
fill="#000000" stroke="none">
<path d="M0 1300 l0 -1300 1300 0 1300 0 0 1300 0 1300 -1300 0 -1300 0 0
-1300z m1790 612 l0 -299 46 45 c26 24 72 56 103 71 77 36 216 37 304 2 118
-46 202 -169 239 -349 17 -81 19 -122 15 -252 -7 -232 -50 -355 -161 -465 -69
-69 -124 -98 -216 -115 -117 -21 -237 13 -317 93 l-43 41 0 -29 c0 -17 -3 -40
-6 -53 -6 -22 -9 -22 -155 -22 l-149 0 0 798 0 799 138 15 c75 8 152 16 170
17 l32 1 0 -298z m-600 -1597 l0 -135 -535 0 -535 0 0 135 0 135 535 0 535 0
0 -135z"/>
<path d="M1900 1488 c-25 -13 -59 -42 -77 -66 l-33 -44 0 -243 0 -243 27 -33
c53 -62 142 -85 210 -52 83 39 123 152 123 344 0 240 -47 344 -161 356 -33 3
-55 -2 -89 -19z"/>
</g>
</svg>
