<svg width="61" height="49" viewBox="0 0 61 49" fill="none" xmlns="http://www.w3.org/2000/svg">
<g clip-path="url(#clip0)">
<path d="M7.11887 6.84219C7.00566 3.59141 9.53844 0.59375 12.962 0.59375H48.0424C51.4659 0.59375 53.9987 3.59141 53.8855 6.84219C53.7767 9.96488 53.9179 14.01 54.9359 17.3082C55.9572 20.6166 57.6794 22.7079 60.5 22.9766V26.0234C57.6794 26.2921 55.9572 28.3834 54.9359 31.6918C53.9179 34.99 53.7767 39.0351 53.8855 42.1579C53.9987 45.4086 51.4659 48.4062 48.0424 48.4062H12.962C9.53844 48.4062 7.00566 45.4086 7.11898 42.1579C7.22762 39.0351 7.08641 34.99 6.06828 31.6918C5.04711 28.3834 3.3207 26.2921 0.5 26.0234V22.9766C3.32059 22.7079 5.04711 20.6166 6.06828 17.3082C7.08641 14.01 7.22762 9.96488 7.11887 6.84219V6.84219Z" fill="#7F44D9"/>
<g filter="url(#filter0_d)">
<path d="M31.801 37.2098C37.3436 37.2098 40.6836 34.496 40.6836 30.0198C40.6836 26.6362 38.3005 24.1866 34.7619 23.7989V23.6579C37.3617 23.235 39.4018 20.8207 39.4018 18.1244C39.4018 14.2827 36.3687 11.7801 31.7469 11.7801H21.3477V37.2098H31.801ZM25.3918 15.0051H30.772C33.6968 15.0051 35.3577 16.3092 35.3577 18.6706C35.3577 21.1907 33.4259 22.6005 29.9234 22.6005H25.3918V15.0051V15.0051ZM25.3918 33.9849V25.6141H30.7358C34.5632 25.6141 36.5492 27.0239 36.5492 29.7731C36.5492 32.5222 34.6175 33.9849 30.9705 33.9849H25.3918V33.9849Z" fill="white"/>
<path d="M31.801 37.2098C37.3436 37.2098 40.6836 34.496 40.6836 30.0198C40.6836 26.6362 38.3005 24.1866 34.7619 23.7989V23.6579C37.3617 23.235 39.4018 20.8207 39.4018 18.1244C39.4018 14.2827 36.3687 11.7801 31.7469 11.7801H21.3477V37.2098H31.801ZM25.3918 15.0051H30.772C33.6968 15.0051 35.3577 16.3092 35.3577 18.6706C35.3577 21.1907 33.4259 22.6005 29.9234 22.6005H25.3918V15.0051V15.0051ZM25.3918 33.9849V25.6141H30.7358C34.5632 25.6141 36.5492 27.0239 36.5492 29.7731C36.5492 32.5222 34.6175 33.9849 30.9705 33.9849H25.3918V33.9849Z" stroke="white"/>
</g>
</g>
<defs>
<filter id="filter0_d" x="4.84766" y="-0.719879" width="52.3359" height="58.4297" filterUnits="userSpaceOnUse" color-interpolation-filters="sRGB">
<feFlood flood-opacity="0" result="BackgroundImageFix"/>
<feColorMatrix in="SourceAlpha" type="matrix" values="0 0 0 0 0 0 0 0 0 0 0 0 0 0 0 0 0 0 127 0" result="hardAlpha"/>
<feOffset dy="4"/>
<feGaussianBlur stdDeviation="8"/>
<feColorMatrix type="matrix" values="0 0 0 0 0 0 0 0 0 0 0 0 0 0 0 0 0 0 0.15 0"/>
<feBlend mode="normal" in2="BackgroundImageFix" result="effect1_dropShadow"/>
<feBlend mode="normal" in="SourceGraphic" in2="effect1_dropShadow" result="shape"/>
</filter>
<clipPath id="clip0">
<rect width="60" height="47.8125" fill="white" transform="translate(0.5 0.59375)"/>
</clipPath>
</defs>
</svg>
