<svg width="51" height="69" fill="none" xmlns="http://www.w3.org/2000/svg"><path d="M.527 55.581L8.984 1.47a1.562 1.562 0 012.92-.496l8.745 16.311 3.486-6.637a1.562 1.562 0 012.764 0l23.6 44.933H.528z" fill="#7F44D9"/><path d="M29.742 34.503l-9.097-17.225L.527 55.58l29.215-21.078z" fill="gold"/><path d="M50.5 55.581l-6.477-40.08a1.563 1.563 0 00-2.643-.844L.527 55.58l22.605 12.677a4.685 4.685 0 004.568 0L50.5 55.58v.001z" fill="#EC35A4"/><path d="M44.023 15.502a1.564 1.564 0 00-2.643-.844l-8.108 8.13-6.376-12.14a1.562 1.562 0 00-2.765 0l-3.485 6.638L11.9.975a1.562 1.562 0 00-2.92.5L.527 55.582H.5l.027.031.223.11 40.618-40.666a1.562 1.562 0 012.647.843l6.422 39.72.063-.038-6.477-40.08zM.601 55.508l8.383-53.65a1.562 1.562 0 012.92-.5l8.745 16.31 3.486-6.636a1.562 1.562 0 012.764 0l6.247 11.88L.6 55.508z" fill="#fff" fill-opacity=".2"/><path opacity=".2" d="M27.7 67.875a4.685 4.685 0 01-4.568 0L.582 55.234l-.055.347 22.605 12.673a4.685 4.685 0 004.568 0L50.5 55.58l-.059-.359L27.7 67.875z" fill="#fff"/><path d="M43.958 15.51a1.553 1.553 0 00-2.634-.843l-8.08 8.124-6.353-12.132a1.556 1.556 0 00-2.754 0l-3.475 6.634L11.948.989a1.555 1.555 0 00-2.91.5L.615 55.571 23.14 68.239a4.656 4.656 0 004.552 0l22.72-12.667-6.455-40.063z" fill="url(#paint0_linear)"/><defs><linearGradient id="paint0_linear" x1="-1.123" y1="11.852" x2="61.02" y2="44.632" gradientUnits="userSpaceOnUse"><stop stop-color="#fff" stop-opacity=".1"/><stop offset=".14" stop-color="#fff" stop-opacity=".08"/><stop offset=".61" stop-color="#fff" stop-opacity=".02"/><stop offset="1" stop-color="#fff" stop-opacity="0"/></linearGradient></defs></svg>