<svg width="61" height="69" fill="none" xmlns="http://www.w3.org/2000/svg"><g clip-path="url(#clip0)"><path d="M53.048 13.486c-.055-.329-.33-.548-.603-.548-.274 0-5.096-.11-5.096-.11S43.294 8.885 42.911 8.5c-.384-.384-1.206-.274-1.48-.164 0 0-.767.219-2.027.602a16.047 16.047 0 00-.986-2.41c-1.425-2.74-3.562-4.22-6.083-4.22-.164 0-.328 0-.548.055-.054-.11-.164-.164-.219-.274C30.472.884 29.048.336 27.35.39c-3.288.11-6.575 2.466-9.205 6.685-1.863 2.96-3.288 6.685-3.726 9.59-3.781 1.15-6.411 1.972-6.466 2.027-1.918.602-1.973.657-2.192 2.465-.164 1.37-5.205 40-5.205 40l41.863 7.233 18.137-4.493c-.055-.054-7.453-50.082-7.507-50.41zm-15.726-3.89c-.987.274-2.083.657-3.233.986 0-1.644-.22-4-.986-5.972 2.465.493 3.67 3.287 4.219 4.986zm-5.48 1.698c-2.192.658-4.602 1.425-7.014 2.137.658-2.575 1.973-5.15 3.507-6.849.603-.603 1.425-1.315 2.357-1.753.986 1.918 1.205 4.603 1.15 6.465zm-4.438-8.712c.767 0 1.424.165 1.973.493A10.725 10.725 0 0026.8 5.103c-2.082 2.246-3.671 5.753-4.329 9.096a2666.23 2666.23 0 01-5.753 1.753c1.15-5.26 5.589-13.205 10.685-13.37z" fill="#4CE470"/><path d="M52.445 12.938c-.274 0-5.096-.11-5.096-.11S43.295 8.885 42.911 8.5c-.164-.164-.329-.22-.548-.274v60.11L60.5 63.843s-7.397-50.028-7.452-50.412a.642.642 0 00-.603-.493z" fill="#FFFF80"/><path d="M32.28 22.253l-2.081 7.89s-2.357-1.095-5.151-.876c-4.11.274-4.11 2.85-4.11 3.507.22 3.507 9.48 4.274 10.028 12.548.383 6.52-3.452 10.959-8.986 11.288-6.686.438-10.357-3.507-10.357-3.507l1.425-6.028s3.671 2.795 6.63 2.576c1.918-.11 2.63-1.699 2.575-2.795-.273-4.603-7.835-4.329-8.328-11.89-.384-6.356 3.78-12.822 12.986-13.37 3.562-.274 5.37.657 5.37.657z" fill="#fff"/></g><defs><clipPath id="clip0"><path fill="#fff" transform="translate(.5 .39)" d="M0 0h60v68.219H0z"/></clipPath></defs></svg>