<svg width="200" height="280" fill="none" xmlns="http://www.w3.org/2000/svg"><mask id="a" maskUnits="userSpaceOnUse" x="0" y="0" width="200" height="280"><path d="M0 222.048V60.404c0-3.877 4.206-5.173 8.176-2.927 6.29 3.559 25.64 15.096 32.912 20.046 7.117 4.846 8.597 7.106 8.597 10.095l1.252 106.809c.004.352.194.677.5.854l46.817 27.062c.303.175.675.179.982.011l48.242-26.492a1 1 0 00.009-1.748l-48.234-27.089a1 1 0 01-.51-.872v-54.729c0-.354.187-.682.492-.862l47.084-27.724a1 1 0 00-.008-1.728L99.235 53.994a.992.992 0 00-.984-.008c-6.927 3.888-21.425 11.99-27.81 15.422-6.542 3.517-13.628 1.465-16.353 0-7.757-4.605-24.78-14.819-30.818-18.838-6.037-4.019-2.515-7.954 0-9.419C42.977 29.848 84.15 6.238 91.195 2.22c7.044-4.019 15.094-1.675 18.239 0l90.074 53.085a1 1 0 01.492.861v53.47a1 1 0 01-.515.875l-48.852 27.097a1 1 0 000 1.749l48.852 27.097a.999.999 0 01.515.874v54.724a.975.975 0 01-.484.856c-26.389 15.387-80.581 46.973-90.082 52.465-9.345 5.401-9.463 5.33-17.91.2l-.329-.2L.499 222.914a1 1 0 01-.499-.866z" fill="#88D7FF"/></mask><g mask="url(#a)"><path fill-rule="evenodd" clip-rule="evenodd" d="M335.772-71.614H-55.284v451.318h391.056V-71.614zM59.329 31.153l29.117 27.796a.947.947 0 001.12.142l8.002-4.488c.139-.078.33-.138.52-.198.69-.216 1.37-.429-.48-1.477L60.49 29.621c-.981-.616-2 .73-1.16 1.532zM191.158 219.8l-43.294-25.332c-.776-.492-1.099-.37-1.391-.259l-.051.019-9.251 5.197a9.034 9.034 0 01-.582.286c-.645.298-1.248.576-.691.905l53.933 20.933c1.152.681 2.318-.856 1.327-1.749zm-46.69-135.872a3.03 3.03 0 00.173-.115h.001c.059-.042.118-.083.18-.12l42.296-24.935a1.08 1.08 0 00.327-.266c.608-.807-.278-1.963-1.224-1.558l-.133.061c-.057.027-.114.054-.172.078l-51.064 20.235c-2.3 1.048-1.428 1.306-.602 1.55.239.07.474.14.627.227l8.555 4.855a1.03 1.03 0 001.036-.011zm-38.473 79.276l49.386-27.73c.957-.532 1.007-.482 1.184-.307.051.051.113.112.21.173l9.301 5.84c.184.115.562.197.959.284 1.245.27 2.67.579-1.152 2.067l-58.551 21.623c-1.23.71-2.405-1.004-1.337-1.95zm-7.083 59.533l-41.126 28.454c-1.121.479-1.65-1.15-.6-1.854l33.71-32.811c.637.436.637.436 1.34.798l7.416 4.357c.823-.354.466.046-.74 1.056zM7.365 169.661l43.323 24.981c1.43.657 1.943.809 1.271.217l.763-8.567c.026-.791.026-.791.147-1.554L8.783 168.324c-1.084-.647-2.33.528-1.418 1.337z" fill="#88D7FF"/></g></svg>