<svg width="61" height="49" fill="none" xmlns="http://www.w3.org/2000/svg"><g clip-path="url(#clip0)"><path d="M7.119 6.842C7.006 3.592 9.539.594 12.962.594h35.08c3.424 0 5.957 2.997 5.843 6.248-.108 3.123.033 7.168 1.05 10.466 1.022 3.309 2.744 5.4 5.565 5.669v3.046c-2.82.27-4.543 2.36-5.564 5.669-1.018 3.298-1.16 7.343-1.05 10.466.113 3.25-2.42 6.248-5.844 6.248h-35.08c-3.424 0-5.956-2.997-5.843-6.248.109-3.123-.033-7.168-1.05-10.466-1.022-3.309-2.748-5.4-5.569-5.669v-3.046c2.82-.27 4.547-2.36 5.568-5.669 1.018-3.298 1.16-7.343 1.05-10.466z" fill="#9580FF"/><g filter="url(#filter0_d)"><path d="M31.801 37.21c5.543 0 8.883-2.714 8.883-7.19 0-3.384-2.383-5.833-5.922-6.221v-.141c2.6-.423 4.64-2.837 4.64-5.534 0-3.841-3.033-6.344-7.655-6.344h-10.4v25.43h10.454zm-6.41-22.205h5.381c2.925 0 4.586 1.304 4.586 3.666 0 2.52-1.932 3.93-5.434 3.93h-4.532v-7.596zm0 18.98v-8.37h5.345c3.827 0 5.813 1.409 5.813 4.158 0 2.75-1.931 4.212-5.578 4.212h-5.58z" fill="#fff"/><path d="M31.801 37.21c5.543 0 8.883-2.714 8.883-7.19 0-3.384-2.383-5.833-5.922-6.221v-.141c2.6-.423 4.64-2.837 4.64-5.534 0-3.841-3.033-6.344-7.655-6.344h-10.4v25.43h10.454zm-6.41-22.205h5.381c2.925 0 4.586 1.304 4.586 3.666 0 2.52-1.932 3.93-5.434 3.93h-4.532v-7.596zm0 18.98v-8.37h5.345c3.827 0 5.813 1.409 5.813 4.158 0 2.75-1.931 4.212-5.578 4.212h-5.58z" stroke="#fff"/></g></g><defs><clipPath id="clip0"><path fill="#fff" transform="translate(.5 .594)" d="M0 0h60v47.813H0z"/></clipPath><filter id="filter0_d" x="4.848" y="-.72" width="52.336" height="58.43" filterUnits="userSpaceOnUse" color-interpolation-filters="sRGB"><feFlood flood-opacity="0" result="BackgroundImageFix"/><feColorMatrix in="SourceAlpha" values="0 0 0 0 0 0 0 0 0 0 0 0 0 0 0 0 0 0 127 0" result="hardAlpha"/><feOffset dy="4"/><feGaussianBlur stdDeviation="8"/><feColorMatrix values="0 0 0 0 0 0 0 0 0 0 0 0 0 0 0 0 0 0 0.15 0"/><feBlend in2="BackgroundImageFix" result="effect1_dropShadow"/><feBlend in="SourceGraphic" in2="effect1_dropShadow" result="shape"/></filter></defs></svg>