<svg width="57" height="56" viewBox="0 0 57 56" fill="none" xmlns="http://www.w3.org/2000/svg"><path fill-rule="evenodd" clip-rule="evenodd" d="M28.5.5C43.7.5 56 12.8 56 28S43.7 55.5 28.5 55.5 1 43.2 1 28 13.3.5 28.5.5Z" fill="#000"/><path fill-rule="evenodd" clip-rule="evenodd" d="M43.1 40.1c-1 3.1-2.5 5.4-4.6 7.1-2.1 1.7-4.9 2.6-8.4 2.9l-.7-4.6c2.3-.3 4-.8 5.1-1.6.4-.3 1.2-1.2 1.2-1.2l-8.3-26.6h6.9L39.1 36l5.1-19.9h6.7l-7.8 24ZM19 15.2c1.6 0 3.1.2 4.3.7 1.3.5 2.5 1.2 3.7 2.2l-2.8 3.8c-.8-.6-1.6-1-2.3-1.3-.7-.3-1.6-.4-2.4-.4-3.4 0-5.1 2.6-5.1 7.9 0 2.7.4 4.6 1.3 5.7.9 1.2 2.1 1.7 3.8 1.7.8 0 1.6-.1 2.3-.4.7-.3 1.5-.7 2.5-1.3l2.8 4c-2.3 1.9-4.9 2.8-7.9 2.8-2.4 0-4.4-.5-6.2-1.5-1.7-1-3.1-2.5-4-4.4-.9-1.9-1.4-4.1-1.4-6.7 0-2.5.5-4.8 1.4-6.7.9-2 2.3-3.5 4-4.6 1.7-.9 3.7-1.5 6-1.5Z" fill="#fff"/></svg>