<svg width="50" height="67" fill="none" xmlns="http://www.w3.org/2000/svg"><g clip-path="url(#clip0)"><path d="M35.288 14.75C30.69 10.155 26.305 5.775 24.998.835c-1.305 4.94-5.692 9.32-10.288 13.915C7.817 21.64 0 29.449 0 41.16a25 25 0 1050 0c0-11.71-7.816-19.52-14.712-26.41zM10.626 46.986c-1.533-.052-7.19-9.803 3.305-20.186l6.945 7.586a.593.593 0 01-.047.886c-1.657 1.7-8.72 8.784-9.598 11.233-.182.505-.446.486-.605.48zM25 59.838a8.598 8.598 0 01-8.598-8.599 8.959 8.959 0 012.143-5.679c1.55-1.896 6.454-7.228 6.454-7.228s4.828 5.41 6.442 7.21a8.408 8.408 0 012.157 5.697A8.598 8.598 0 0125 59.838zm16.457-13.944c-.185.406-.606 1.082-1.173 1.103-1.012.037-1.12-.481-1.867-1.588-1.641-2.428-15.964-17.397-18.642-20.292-2.357-2.546-.332-4.34.607-5.282 1.178-1.18 4.617-4.617 4.617-4.617s10.255 9.73 14.526 16.378c4.272 6.648 2.8 12.4 1.932 14.299" fill="#80FFEA"/></g><defs><clipPath id="clip0"><path fill="#fff" transform="translate(0 .835)" d="M0 0h50v65.33H0z"/></clipPath></defs></svg>