<svg width="45" height="67" fill="none" xmlns="http://www.w3.org/2000/svg"><path d="M11.252 67C17.461 67 22.5 61.997 22.5 55.833V44.667H11.252C5.043 44.667.004 49.669.004 55.833.004 61.997 5.044 67 11.252 67Z" fill="#00CE05"/><path d="M.004 33.5c0-6.164 5.04-11.167 11.248-11.167H22.5v22.334H11.252C5.043 44.667.004 39.664.004 33.5Z" fill="#7F44D9"/><path d="M.004 11.167C.004 5.003 5.044 0 11.252 0H22.5v22.333H11.252C5.043 22.333.004 17.331.004 11.167ZM22.5 0h11.248c6.209 0 11.248 5.003 11.248 11.167s-5.04 11.166-11.248 11.166H22.5V0Z" fill="#EC35A4"/><path d="M44.996 33.5c0 6.164-5.04 11.167-11.248 11.167-6.209 0-11.248-5.003-11.248-11.167s5.039-11.167 11.248-11.167S44.996 27.336 44.996 33.5Z" fill="#7ABFFF"/></svg>