<svg width="45" height="68" fill="none" xmlns="http://www.w3.org/2000/svg"><path d="M11.252 67.5c6.209 0 11.248-5.003 11.248-11.167V45.167H11.252C5.044 45.167.005 50.169.005 56.333c0 6.164 5.039 11.167 11.247 11.167Z" fill="#4CE470"/><path d="M.005 34c0-6.164 5.039-11.167 11.247-11.167H22.5v22.334H11.252C5.044 45.167.005 40.164.005 34Z" fill="#9580FF"/><path d="M.005 11.667C.005 5.503 5.044.5 11.252.5H22.5v22.333H11.252C5.044 22.833.005 17.831.005 11.667ZM22.5.5h11.248c6.209 0 11.248 5.003 11.248 11.167s-5.04 11.166-11.248 11.166H22.5V.5Z" fill="#FF80BF"/><path d="M44.996 34c0 6.164-5.04 11.167-11.248 11.167C27.539 45.167 22.5 40.164 22.5 34s5.039-11.167 11.248-11.167S44.996 27.836 44.996 34Z" fill="#80FFEA"/></svg>