<svg width="31" height="66" fill="none" xmlns="http://www.w3.org/2000/svg"><path d="M21.271 7.75c-2.79-3.226-5.193-6.526-5.681-7.204A.11.11 0 0 0 15.5.5a.112.112 0 0 0-.09.046c-.489.678-2.892 3.978-5.681 7.204-23.909 29.857 3.774 50.002 3.774 50.002l.224.152c.21 3.117.731 7.596.731 7.596h2.084s.519-4.46.73-7.575l.226-.173S45.18 37.606 21.27 7.75Zm-5.77 49.564H15.5s-1.241-1.038-1.576-1.558l-.003-.056 1.501-32.505c0-.02.01-.039.024-.052a.08.08 0 0 1 .108 0 .076.076 0 0 1 .024.052L17.079 55.7l-.003.056c-.335.52-1.576 1.558-1.576 1.558Z" fill="#00CE05"/></svg>