<svg width="65" height="59" fill="none" xmlns="http://www.w3.org/2000/svg"><path d="M65 29.507c0-4.307-5.392-8.388-13.66-10.92 1.908-8.427 1.06-15.132-2.676-17.279-.861-.503-1.868-.742-2.968-.742v2.955c.61 0 1.1.12 1.51.345 1.802 1.033 2.584 4.969 1.975 10.03a40.782 40.782 0 01-.676 3.897c-2.597-.636-5.432-1.127-8.413-1.445-1.789-2.451-3.644-4.677-5.512-6.625 4.32-4.015 8.373-6.215 11.13-6.215V.553c-3.644 0-8.414 2.597-13.236 7.103C27.65 3.176 22.88.606 19.238.606v2.955c2.742 0 6.81 2.186 11.129 6.175a62.599 62.599 0 00-5.472 6.612c-2.994.318-5.83.809-8.426 1.458a39.96 39.96 0 01-.69-3.843c-.622-5.062.146-8.997 1.935-10.044.398-.239.914-.345 1.524-.345V.62c-1.113 0-2.12.239-2.995.742-3.723 2.147-4.557 8.839-2.636 17.24C5.366 21.145 0 25.213 0 29.507c0 4.306 5.392 8.387 13.66 10.918-1.908 8.428-1.06 15.133 2.676 17.28.861.503 1.868.742 2.981.742 3.644 0 8.413-2.597 13.236-7.103 4.823 4.48 9.592 7.05 13.236 7.05 1.113 0 2.12-.239 2.994-.742 3.723-2.147 4.558-8.839 2.637-17.24C59.634 37.882 65 33.8 65 29.507zm-17.25-8.839c-.49 1.71-1.1 3.472-1.789 5.234a62.71 62.71 0 00-1.736-3.18 71.652 71.652 0 00-1.907-3.1c1.88.278 3.696.622 5.432 1.046zm-6.068 14.113a70.558 70.558 0 01-3.193 5.061 68.913 68.913 0 01-5.989.266c-2 0-4.001-.093-5.962-.252a73.08 73.08 0 01-3.206-5.036 69.05 69.05 0 01-2.756-5.274 69.11 69.11 0 012.742-5.287 70.58 70.58 0 013.193-5.062 68.913 68.913 0 015.989-.265c2 0 4.001.093 5.962.252a73.08 73.08 0 013.206 5.035 69.033 69.033 0 012.756 5.274 74.203 74.203 0 01-2.742 5.288zm4.28-1.723a56.788 56.788 0 011.827 5.274 59.44 59.44 0 01-5.458 1.06 73.258 73.258 0 001.908-3.14c.61-1.06 1.179-2.134 1.722-3.194zM32.525 47.197a54.612 54.612 0 01-3.683-4.24c1.193.052 2.412.092 3.644.092 1.245 0 2.477-.026 3.683-.093a51.716 51.716 0 01-3.644 4.24zm-9.857-7.805a59.793 59.793 0 01-5.432-1.047c.49-1.71 1.1-3.472 1.789-5.234a62.71 62.71 0 001.735 3.18 87.855 87.855 0 001.908 3.1zm9.791-27.576a54.631 54.631 0 013.684 4.24 82.009 82.009 0 00-3.644-.092c-1.245 0-2.478.027-3.683.093a51.695 51.695 0 013.643-4.24zm-9.804 7.805a73.217 73.217 0 00-3.63 6.321 56.8 56.8 0 01-1.829-5.274 64.338 64.338 0 015.459-1.047zm-11.99 16.59c-4.69-2-7.725-4.624-7.725-6.704s3.034-4.718 7.724-6.705c1.14-.49 2.385-.928 3.67-1.339a63.64 63.64 0 002.982 8.07 62.729 62.729 0 00-2.942 8.03 40.246 40.246 0 01-3.71-1.351zm7.128 18.936c-1.802-1.033-2.584-4.969-1.975-10.03.146-1.246.385-2.558.676-3.896 2.597.636 5.432 1.126 8.413 1.444 1.789 2.451 3.644 4.678 5.512 6.625-4.32 4.016-8.373 6.215-11.13 6.215-.595-.013-1.099-.132-1.496-.358zM49.22 45.05c.623 5.062-.145 8.998-1.934 10.044-.398.239-.914.345-1.524.345-2.742 0-6.81-2.187-11.129-6.175a62.593 62.593 0 005.472-6.612c2.994-.318 5.83-.809 8.426-1.458.305 1.338.544 2.624.69 3.856zm5.101-8.838c-1.14.49-2.385.927-3.67 1.338a63.645 63.645 0 00-2.98-8.07 62.763 62.763 0 002.94-8.03c1.312.41 2.558.861 3.724 1.352 4.69 2 7.724 4.624 7.724 6.705-.014 2.08-3.048 4.717-7.738 6.705z" fill="#7ABFFF"/><path d="M32.487 35.562a6.055 6.055 0 10-.001-12.11 6.055 6.055 0 000 12.11z" fill="#7ABFFF"/></svg>