<svg width="53" height="31" fill="none" xmlns="http://www.w3.org/2000/svg"><path fill-rule="evenodd" clip-rule="evenodd" d="M26.5.282c-6.805 0-11.057 3.382-12.759 10.146 2.552-3.382 5.53-4.65 8.931-3.805 1.941.482 3.33 1.882 4.864 3.432 2.502 2.524 5.398 5.445 11.722 5.445 6.804 0 11.057-3.382 12.758-10.145-2.55 3.382-5.528 4.65-8.93 3.804-1.942-.482-3.33-1.882-4.865-3.431C35.72 3.202 32.824.282 26.501.282zM13.741 15.5C6.937 15.5 2.684 18.882.983 25.646c2.552-3.382 5.53-4.65 8.93-3.805 1.942.482 3.33 1.882 4.865 3.432 2.502 2.524 5.397 5.445 11.722 5.445 6.804 0 11.057-3.381 12.758-10.145-2.552 3.382-5.529 4.65-8.93 3.805-1.942-.483-3.33-1.883-4.865-3.432-2.502-2.524-5.398-5.446-11.722-5.446z" fill="#7ABFFF"/></svg>