<svg width="65" height="66" fill="none" xmlns="http://www.w3.org/2000/svg"><path fill-rule="evenodd" clip-rule="evenodd" d="M6.348.5h52.304A6.348 6.348 0 0 1 65 6.848v52.304a6.348 6.348 0 0 1-6.348 6.348H6.348A6.348 6.348 0 0 1 0 59.152V6.848A6.348 6.348 0 0 1 6.348.5Zm33.896 51.922v-.252l-.241.056c.08.066.16.132.241.196Zm0 0v6.096c1.029.533 2.285.926 3.682 1.193 1.396.267 2.92.394 4.443.394 1.524 0 2.92-.14 4.316-.432a10.952 10.952 0 0 0 3.555-1.397c1.029-.673 1.904-1.523 2.412-2.666.508-1.142.902-2.412.902-4.062 0-1.155-.178-2.158-.52-3.047-.344-.889-.839-1.65-1.524-2.285a10.084 10.084 0 0 0-2.285-1.778 28.348 28.348 0 0 0-3.047-1.523c-.52-.212-.98-.42-1.437-.626-.28-.126-.559-.251-.848-.377-.66-.33-1.232-.66-1.65-.99-.47-.343-.826-.698-1.08-1.066a2.23 2.23 0 0 1-.38-1.27c0-.432.112-.825.342-1.18.23-.356.546-.648.952-.902.406-.254.914-.444 1.524-.584.596-.14 1.256-.203 2.03-.203.534 0 1.093.04 1.651.12.584.08 1.18.202 1.778.367.596.165 1.18.368 1.777.622.558.254 1.079.546 1.523.876v-5.966a15.692 15.692 0 0 0-3.173-.826c-1.143-.177-2.413-.266-3.936-.266-1.523 0-2.92.165-4.316.482-1.397.317-2.54.825-3.555 1.524-1.028.685-1.778 1.523-2.412 2.666-.597 1.066-.889 2.285-.889 3.808 0 1.904.546 3.555 1.65 4.824 1.092 1.397 2.794 2.413 4.952 3.428.76.309 1.444.617 2.11.918l.302.136c.761.343 1.396.698 1.904 1.066.546.368.978.775 1.27 1.206.317.432.482.94.482 1.524 0 .406-.099.787-.292 1.142-.193.356-.495.66-.901.914-.407.254-.902.457-1.524.61-.596.14-1.27.216-2.158.216-1.397 0-2.793-.242-4.063-.724a12.033 12.033 0 0 1-3.567-1.962Zm-2.539-15.867H29.58v23.232h-6.474V36.555H14.98V31.35h22.725v5.205Z" fill="#80FFEA"/></svg>