<svg width="61" height="61" fill="none" xmlns="http://www.w3.org/2000/svg"><circle cx="30.5" cy="30.5" r="30" fill="#fff"/><path d="M4.764 30.498c0 10.187 5.92 18.99 14.504 23.162L6.992 20.025a25.638 25.638 0 00-2.228 10.473zM47.872 29.2c0-3.18-1.142-5.383-2.122-7.098-1.304-2.12-2.527-3.915-2.527-6.035 0-2.366 1.794-4.568 4.321-4.568.114 0 .223.015.334.021a25.64 25.64 0 00-17.379-6.756c-8.99 0-16.9 4.613-21.502 11.6.604.018 1.173.03 1.656.03 2.692 0 6.859-.326 6.859-.326 1.387-.082 1.55 1.956.165 2.12 0 0-1.394.164-2.946.245l9.372 27.876 5.632-16.89-4.01-10.987c-1.386-.08-2.698-.245-2.698-.245-1.387-.081-1.225-2.202.162-2.12 0 0 4.25.327 6.779.327 2.691 0 6.859-.327 6.859-.327 1.388-.082 1.55 1.956.165 2.12 0 0-1.398.164-2.946.245l9.3 27.665 2.567-8.578c1.113-3.56 1.96-6.116 1.96-8.32z" fill="#404040"/><path d="M30.95 32.75l-7.72 22.436a25.735 25.735 0 0015.815-.41 2.26 2.26 0 01-.183-.355L30.951 32.75zM53.08 18.151c.111.82.174 1.7.174 2.647 0 2.611-.488 5.547-1.957 9.218l-7.86 22.727c7.65-4.461 12.796-12.75 12.796-22.244 0-4.474-1.142-8.682-3.152-12.348z" fill="#404040"/><path d="M30.5.5C13.957.5.5 13.957.5 30.498c0 16.543 13.458 30 30 30 16.54 0 30-13.457 30-30C60.5 13.958 47.04.5 30.5.5zm0 58.623c-15.783 0-28.624-12.841-28.624-28.625 0-15.782 12.84-28.622 28.623-28.622 15.782 0 28.622 12.84 28.622 28.622 0 15.784-12.84 28.625-28.622 28.625z" fill="#fff"/></svg>